<svg height="512" viewBox="0 0 512 512" width="512" xmlns="http://www.w3.org/2000/svg"><g id="Flat"><path d="m387.05 299.06a28.929 28.929 0 0 1 -28.94 28.94h-204.22a28.946 28.946 0 0 1 -23.16-46.31l4.33-5.77a19.84 19.84 0 0 0 0-23.84 28.949 28.949 0 0 1 2.69-37.83l5.77-5.77a28.944 28.944 0 0 0 8.48-20.47v-61.79a102.222 102.222 0 0 1 102.22-102.22 60.242 60.242 0 0 1 19.06 3.09l6.72 2.24 8 2.67a60.858 60.858 0 0 1 15.46 2.02 60.413 60.413 0 0 1 14.43 5.92 83.571 83.571 0 0 1 42.11 72.56v75.51a28.944 28.944 0 0 0 8.48 20.47l5.77 5.77a28.935 28.935 0 0 1 2.69 37.83 19.86 19.86 0 0 0 0 23.84l4.33 5.77a28.932 28.932 0 0 1 5.78 17.37z" fill="#7a432a"/><path d="m344 192h-16v-48h16a24 24 0 0 1 24 24 24 24 0 0 1 -24 24z" fill="#fcb079"/><g fill="#663723"><path d="m181.361 329.59-13.444-23.89c-.064-.114-.126-.23-.185-.347a29.338 29.338 0 0 1 5.5-33.9 13.4 13.4 0 0 0 3.859-8.2l15.929 1.5a29.439 29.439 0 0 1 -8.473 18.014 13.357 13.357 0 0 0 -2.582 15.281l13.337 23.7z"/><path d="m331.387 329.44-14.108-7.547 12.721-23.779a13.357 13.357 0 0 0 -2.549-15.35 29.1 29.1 0 0 1 -7.019-11.25l15.138-5.178a13.234 13.234 0 0 0 3.195 5.114 29.336 29.336 0 0 1 5.5 33.905c-.033.066-.067.132-.1.2z"/><path d="m296 32.54v52.46h-16v-55.67l8 2.67a59.288 59.288 0 0 1 8 .54z"/></g><path d="m112 496v-128a48 48 0 0 1 48-48h52a12 12 0 0 0 12-12v-68h64v68a12 12 0 0 0 12 12h52a48 48 0 0 1 48 48v128" fill="#fdc8a2"/><path d="m288 256v41.33a80.1 80.1 0 0 1 -64 0v-41.33z" fill="#fdbf92"/><path d="m352 320h-32l-9.656 72.421a54.826 54.826 0 0 1 -54.344 47.579 54.826 54.826 0 0 1 -54.344-47.579l-9.656-72.421h-32a48 48 0 0 0 -48 48v128h288v-128a48 48 0 0 0 -48-48z" fill="#7a432a"/><path d="m400 496v-128a48 48 0 0 0 -48-48h-48l-24 160v16" fill="#c7483c"/><path d="m112 496v-128a48 48 0 0 1 48-48h48l24 160v16" fill="#c7483c"/><path d="m208 320h-16l-32 32 32 24-16 16 56 88z" fill="#d65246"/><path d="m304 320h16l32 32-32 24 16 16-56 88z" fill="#d65246"/><path d="m176 496h-16v-4.814a62.164 62.164 0 0 1 -16-41.813v-.833a62.426 62.426 0 0 1 10.519-34.74l13.312 8.875a46.484 46.484 0 0 0 -7.831 25.865v.833a46.321 46.321 0 0 0 13.656 32.97 8 8 0 0 1 2.344 5.657z" fill="#b93f33"/><path d="m352 496h-16v-8a8 8 0 0 1 2.344-5.657 46.321 46.321 0 0 0 13.656-32.97v-.833a46.484 46.484 0 0 0 -7.831-25.865l13.312-8.875a62.426 62.426 0 0 1 10.519 34.74v.833a62.164 62.164 0 0 1 -16 41.813z" fill="#b93f33"/><path d="m288 80s-50.376-32.871-64 8c-16 48-47.671 87.99-47.671 87.99s1.883 16.66 2.506 19.959c7.305 38.717 32.05 84.051 77.165 84.051 57.77 0 80-66.6 80-114.365v-21.635c0-32-24-64-48-64z" fill="#fdc8a2"/><path d="m246.111 228h-6.111v-16h6.111a68.119 68.119 0 0 0 30.311-7.156l7.156 14.311a84.209 84.209 0 0 1 -37.467 8.845z" fill="#fcb079"/><path d="m214 172a14 14 0 1 1 14-14 14.015 14.015 0 0 1 -14 14z" fill="#91563a"/><path d="m298 172a14 14 0 1 1 14-14 14.015 14.015 0 0 1 -14 14z" fill="#91563a"/></g></svg>